<mxfile host="app.diagrams.net" modified="2023-10-10T01:18:27.654Z" agent="Mozilla/5.0 (Windows NT 10.0; Win64; x64) AppleWebKit/537.36 (KHTML, like Gecko) Chrome/117.0.0.0 Safari/537.36" etag="waB9DOAV95yuz91-LbQa" version="21.6.8" type="device">
  <diagram name="PÃ¡gina-1" id="qK05mpG2FW56t2ni8MNx">
    <mxGraphModel dx="1434" dy="782" grid="1" gridSize="10" guides="1" tooltips="1" connect="1" arrows="1" fold="1" page="1" pageScale="1" pageWidth="827" pageHeight="1169" math="0" shadow="0">
      <root>
        <mxCell id="0" />
        <mxCell id="1" parent="0" />
        <mxCell id="9jAZjN9ypwXn9oiTklFW-1" value="Carrinho" style="shape=umlFrame;whiteSpace=wrap;html=1;pointerEvents=0;recursiveResize=0;container=1;collapsible=0;width=160;" vertex="1" parent="1">
          <mxGeometry x="20" y="30" width="780" height="430" as="geometry" />
        </mxCell>
        <mxCell id="9jAZjN9ypwXn9oiTklFW-30" style="edgeStyle=orthogonalEdgeStyle;rounded=0;orthogonalLoop=1;jettySize=auto;html=1;entryX=0.05;entryY=0.067;entryDx=0;entryDy=0;entryPerimeter=0;" edge="1" parent="9jAZjN9ypwXn9oiTklFW-1" target="9jAZjN9ypwXn9oiTklFW-8">
          <mxGeometry relative="1" as="geometry">
            <mxPoint x="60" y="105" as="sourcePoint" />
          </mxGeometry>
        </mxCell>
        <mxCell id="9jAZjN9ypwXn9oiTklFW-5" value="" style="rounded=1;whiteSpace=wrap;html=1;" vertex="1" parent="9jAZjN9ypwXn9oiTklFW-1">
          <mxGeometry x="210" y="70" width="120" height="60" as="geometry" />
        </mxCell>
        <mxCell id="9jAZjN9ypwXn9oiTklFW-6" value="" style="endArrow=none;html=1;rounded=0;exitX=0;exitY=0.5;exitDx=0;exitDy=0;entryX=1;entryY=0.5;entryDx=0;entryDy=0;" edge="1" parent="9jAZjN9ypwXn9oiTklFW-1" source="9jAZjN9ypwXn9oiTklFW-5" target="9jAZjN9ypwXn9oiTklFW-5">
          <mxGeometry width="50" height="50" relative="1" as="geometry">
            <mxPoint x="480" y="230" as="sourcePoint" />
            <mxPoint x="530" y="180" as="targetPoint" />
          </mxGeometry>
        </mxCell>
        <mxCell id="9jAZjN9ypwXn9oiTklFW-7" value="Adicionando Produto" style="text;html=1;align=center;verticalAlign=middle;resizable=0;points=[];autosize=1;strokeColor=none;fillColor=none;" vertex="1" parent="9jAZjN9ypwXn9oiTklFW-1">
          <mxGeometry x="205" y="70" width="130" height="30" as="geometry" />
        </mxCell>
        <mxCell id="9jAZjN9ypwXn9oiTklFW-12" style="edgeStyle=orthogonalEdgeStyle;rounded=0;orthogonalLoop=1;jettySize=auto;html=1;entryX=0;entryY=0.75;entryDx=0;entryDy=0;exitX=0.943;exitY=0.033;exitDx=0;exitDy=0;exitPerimeter=0;" edge="1" parent="9jAZjN9ypwXn9oiTklFW-1" source="9jAZjN9ypwXn9oiTklFW-8" target="9jAZjN9ypwXn9oiTklFW-9">
          <mxGeometry relative="1" as="geometry">
            <Array as="points">
              <mxPoint x="380" y="100" />
              <mxPoint x="380" y="115" />
            </Array>
          </mxGeometry>
        </mxCell>
        <mxCell id="9jAZjN9ypwXn9oiTklFW-8" value="-do/AdicionarProduto" style="text;html=1;align=center;verticalAlign=middle;resizable=0;points=[];autosize=1;strokeColor=none;fillColor=none;" vertex="1" parent="9jAZjN9ypwXn9oiTklFW-1">
          <mxGeometry x="200" y="100" width="140" height="30" as="geometry" />
        </mxCell>
        <mxCell id="9jAZjN9ypwXn9oiTklFW-9" value="" style="rounded=1;whiteSpace=wrap;html=1;" vertex="1" parent="9jAZjN9ypwXn9oiTklFW-1">
          <mxGeometry x="470" y="70" width="120" height="60" as="geometry" />
        </mxCell>
        <mxCell id="9jAZjN9ypwXn9oiTklFW-10" value="" style="endArrow=none;html=1;rounded=0;exitX=0;exitY=0.5;exitDx=0;exitDy=0;entryX=1;entryY=0.5;entryDx=0;entryDy=0;" edge="1" parent="9jAZjN9ypwXn9oiTklFW-1" source="9jAZjN9ypwXn9oiTklFW-9" target="9jAZjN9ypwXn9oiTklFW-9">
          <mxGeometry width="50" height="50" relative="1" as="geometry">
            <mxPoint x="705" y="230" as="sourcePoint" />
            <mxPoint x="755" y="180" as="targetPoint" />
          </mxGeometry>
        </mxCell>
        <mxCell id="9jAZjN9ypwXn9oiTklFW-13" value="Produto Adicionado" style="text;html=1;align=center;verticalAlign=middle;resizable=0;points=[];autosize=1;strokeColor=none;fillColor=none;" vertex="1" parent="9jAZjN9ypwXn9oiTklFW-1">
          <mxGeometry x="340" y="70" width="130" height="30" as="geometry" />
        </mxCell>
        <mxCell id="9jAZjN9ypwXn9oiTklFW-14" value="Atualizando Carrinho" style="text;html=1;align=center;verticalAlign=middle;resizable=0;points=[];autosize=1;strokeColor=none;fillColor=none;" vertex="1" parent="9jAZjN9ypwXn9oiTklFW-1">
          <mxGeometry x="460" y="70" width="140" height="30" as="geometry" />
        </mxCell>
        <mxCell id="9jAZjN9ypwXn9oiTklFW-17" style="edgeStyle=orthogonalEdgeStyle;rounded=0;orthogonalLoop=1;jettySize=auto;html=1;entryX=0.5;entryY=0;entryDx=0;entryDy=0;" edge="1" parent="9jAZjN9ypwXn9oiTklFW-1" source="9jAZjN9ypwXn9oiTklFW-15">
          <mxGeometry relative="1" as="geometry">
            <mxPoint x="665" y="200" as="targetPoint" />
          </mxGeometry>
        </mxCell>
        <mxCell id="9jAZjN9ypwXn9oiTklFW-15" value="&lt;font style=&quot;font-size: 10px;&quot;&gt;-do/AtualizarCarrinho()&lt;/font&gt;" style="text;html=1;align=center;verticalAlign=middle;resizable=0;points=[];autosize=1;strokeColor=none;fillColor=none;" vertex="1" parent="9jAZjN9ypwXn9oiTklFW-1">
          <mxGeometry x="470" y="100" width="120" height="30" as="geometry" />
        </mxCell>
        <mxCell id="9jAZjN9ypwXn9oiTklFW-18" value="" style="rounded=1;whiteSpace=wrap;html=1;" vertex="1" parent="9jAZjN9ypwXn9oiTklFW-1">
          <mxGeometry x="215" y="260" width="120" height="60" as="geometry" />
        </mxCell>
        <mxCell id="9jAZjN9ypwXn9oiTklFW-19" value="" style="endArrow=none;html=1;rounded=0;exitX=0;exitY=0.5;exitDx=0;exitDy=0;entryX=1;entryY=0.5;entryDx=0;entryDy=0;" edge="1" parent="9jAZjN9ypwXn9oiTklFW-1" source="9jAZjN9ypwXn9oiTklFW-18" target="9jAZjN9ypwXn9oiTklFW-18">
          <mxGeometry width="50" height="50" relative="1" as="geometry">
            <mxPoint x="485" y="420" as="sourcePoint" />
            <mxPoint x="535" y="370" as="targetPoint" />
          </mxGeometry>
        </mxCell>
        <mxCell id="9jAZjN9ypwXn9oiTklFW-34" style="edgeStyle=orthogonalEdgeStyle;rounded=0;orthogonalLoop=1;jettySize=auto;html=1;entryX=0.064;entryY=0.067;entryDx=0;entryDy=0;entryPerimeter=0;exitX=0.907;exitY=-0.133;exitDx=0;exitDy=0;exitPerimeter=0;" edge="1" parent="9jAZjN9ypwXn9oiTklFW-1" source="9jAZjN9ypwXn9oiTklFW-21" target="9jAZjN9ypwXn9oiTklFW-25">
          <mxGeometry relative="1" as="geometry" />
        </mxCell>
        <mxCell id="9jAZjN9ypwXn9oiTklFW-20" value="Removendo Produto" style="text;html=1;align=center;verticalAlign=middle;resizable=0;points=[];autosize=1;strokeColor=none;fillColor=none;" vertex="1" parent="9jAZjN9ypwXn9oiTklFW-1">
          <mxGeometry x="210" y="260" width="130" height="30" as="geometry" />
        </mxCell>
        <mxCell id="9jAZjN9ypwXn9oiTklFW-21" value="-do/RemoverProduto()" style="text;html=1;align=center;verticalAlign=middle;resizable=0;points=[];autosize=1;strokeColor=none;fillColor=none;" vertex="1" parent="9jAZjN9ypwXn9oiTklFW-1">
          <mxGeometry x="205" y="290" width="140" height="30" as="geometry" />
        </mxCell>
        <mxCell id="9jAZjN9ypwXn9oiTklFW-22" value="" style="rounded=1;whiteSpace=wrap;html=1;" vertex="1" parent="9jAZjN9ypwXn9oiTklFW-1">
          <mxGeometry x="460" y="260" width="120" height="60" as="geometry" />
        </mxCell>
        <mxCell id="9jAZjN9ypwXn9oiTklFW-23" value="" style="endArrow=none;html=1;rounded=0;exitX=0;exitY=0.5;exitDx=0;exitDy=0;entryX=1;entryY=0.5;entryDx=0;entryDy=0;" edge="1" parent="9jAZjN9ypwXn9oiTklFW-1" source="9jAZjN9ypwXn9oiTklFW-22" target="9jAZjN9ypwXn9oiTklFW-22">
          <mxGeometry width="50" height="50" relative="1" as="geometry">
            <mxPoint x="730" y="420" as="sourcePoint" />
            <mxPoint x="780" y="370" as="targetPoint" />
          </mxGeometry>
        </mxCell>
        <mxCell id="9jAZjN9ypwXn9oiTklFW-24" value="Removendo Produto" style="text;html=1;align=center;verticalAlign=middle;resizable=0;points=[];autosize=1;strokeColor=none;fillColor=none;" vertex="1" parent="9jAZjN9ypwXn9oiTklFW-1">
          <mxGeometry x="455" y="260" width="130" height="30" as="geometry" />
        </mxCell>
        <mxCell id="9jAZjN9ypwXn9oiTklFW-29" style="edgeStyle=orthogonalEdgeStyle;rounded=0;orthogonalLoop=1;jettySize=auto;html=1;entryX=0.5;entryY=1;entryDx=0;entryDy=0;exitX=0.907;exitY=-0.167;exitDx=0;exitDy=0;exitPerimeter=0;" edge="1" parent="9jAZjN9ypwXn9oiTklFW-1" source="9jAZjN9ypwXn9oiTklFW-25">
          <mxGeometry relative="1" as="geometry">
            <mxPoint x="665" y="230" as="targetPoint" />
          </mxGeometry>
        </mxCell>
        <mxCell id="9jAZjN9ypwXn9oiTklFW-25" value="-do/RemoverProduto()" style="text;html=1;align=center;verticalAlign=middle;resizable=0;points=[];autosize=1;strokeColor=none;fillColor=none;" vertex="1" parent="9jAZjN9ypwXn9oiTklFW-1">
          <mxGeometry x="450" y="290" width="140" height="30" as="geometry" />
        </mxCell>
        <mxCell id="9jAZjN9ypwXn9oiTklFW-28" value="Produto Removido" style="text;html=1;align=center;verticalAlign=middle;resizable=0;points=[];autosize=1;strokeColor=none;fillColor=none;" vertex="1" parent="9jAZjN9ypwXn9oiTklFW-1">
          <mxGeometry x="335" y="240" width="120" height="30" as="geometry" />
        </mxCell>
        <mxCell id="9jAZjN9ypwXn9oiTklFW-32" value="" style="ellipse;html=1;shape=endState;fillColor=strokeColor;" vertex="1" parent="9jAZjN9ypwXn9oiTklFW-1">
          <mxGeometry x="650" y="200" width="30" height="30" as="geometry" />
        </mxCell>
        <mxCell id="9jAZjN9ypwXn9oiTklFW-35" style="edgeStyle=orthogonalEdgeStyle;rounded=0;orthogonalLoop=1;jettySize=auto;html=1;exitX=0.5;exitY=1;exitDx=0;exitDy=0;entryX=0.315;entryY=-0.033;entryDx=0;entryDy=0;entryPerimeter=0;" edge="1" parent="9jAZjN9ypwXn9oiTklFW-1" source="9jAZjN9ypwXn9oiTklFW-33" target="9jAZjN9ypwXn9oiTklFW-20">
          <mxGeometry relative="1" as="geometry" />
        </mxCell>
        <mxCell id="9jAZjN9ypwXn9oiTklFW-33" value="" style="ellipse;fillColor=strokeColor;html=1;" vertex="1" parent="9jAZjN9ypwXn9oiTklFW-1">
          <mxGeometry x="30" y="90" width="30" height="30" as="geometry" />
        </mxCell>
      </root>
    </mxGraphModel>
  </diagram>
</mxfile>
